<svg xmlns="http://www.w3.org/2000/svg" viewBox="0 0 1080 780" width="1080" height="780" role="img" aria-label="poster-rust 架构设计">
<defs>
  <marker id="ah" markerWidth="10" markerHeight="10" refX="8" refY="4" orient="auto">
    <path d="M0,0 L9,4 L0,8 z" fill="#2D3436"/>
  </marker>
</defs>
<rect width="1080" height="780" fill="#FFFFFF"/>
<text x="24" y="40" font-family="system-ui,-apple-system,'PingFang SC','Microsoft YaHei','Noto Sans CJK SC',sans-serif" font-size="22" fill="#2D3436" font-weight="700" text-anchor="start" opacity="1.0">poster-rust 架构设计</text><text x="24" y="66" font-family="system-ui,-apple-system,'PingFang SC','Microsoft YaHei','Noto Sans CJK SC',sans-serif" font-size="15" fill="#8A6A5B" font-weight="400" text-anchor="start" opacity="1.0">分层依赖：上层只调用下层，替换存储或素材不影响业务代码</text>
<rect x="88" y="96" width="880" height="118" rx="10" fill="#FFECEC" stroke="#FF6B6B" stroke-width="1.5"/><text x="108" y="122" font-family="system-ui,-apple-system,'PingFang SC','Microsoft YaHei','Noto Sans CJK SC',sans-serif" font-size="15" fill="#2D3436" font-weight="700" text-anchor="start" opacity="1.0">API 层</text><rect x="108.0" y="132" width="274.6666666666667" height="66" rx="8" fill="#FFFDF8" stroke="#E4EBF0" stroke-width="1.5"/><text x="245.33333333333334" y="156" font-family="system-ui,-apple-system,'PingFang SC','Microsoft YaHei','Noto Sans CJK SC',sans-serif" font-size="13" fill="#2D3436" font-weight="700" text-anchor="middle" opacity="1.0">辅助函数</text><text x="245.33333333333334" y="176" font-family="system-ui,-apple-system,'PingFang SC','Microsoft YaHei','Noto Sans CJK SC',sans-serif" font-size="10.5" fill="#8A6A5B" font-weight="400" text-anchor="middle" opacity="1.0">captcha_create ·</text><text x="245.33333333333334" y="190" font-family="system-ui,-apple-system,'PingFang SC','Microsoft YaHei','Noto Sans CJK SC',sans-serif" font-size="10.5" fill="#8A6A5B" font-weight="400" text-anchor="middle" opacity="1.0">captcha_verify ·</text><text x="245.33333333333334" y="204" font-family="system-ui,-apple-system,'PingFang SC','Microsoft YaHei','Noto Sans CJK SC',sans-serif" font-size="10.5" fill="#8A6A5B" font-weight="400" text-anchor="middle" opacity="1.0">poster_create</text><rect x="394.6666666666667" y="132" width="274.6666666666667" height="66" rx="8" fill="#FFFDF8" stroke="#E4EBF0" stroke-width="1.5"/><text x="532.0" y="156" font-family="system-ui,-apple-system,'PingFang SC','Microsoft YaHei','Noto Sans CJK SC',sans-serif" font-size="13" fill="#2D3436" font-weight="700" text-anchor="middle" opacity="1.0">Guard 请求守卫</text><text x="532.0" y="176" font-family="system-ui,-apple-system,'PingFang SC','Microsoft YaHei','Noto Sans CJK SC',sans-serif" font-size="10.5" fill="#8A6A5B" font-weight="400" text-anchor="middle" opacity="1.0">原生 Rust；接线期构造、请求期克隆</text><rect x="681.3333333333334" y="132" width="274.6666666666667" height="66" rx="8" fill="#FFFDF8" stroke="#E4EBF0" stroke-width="1.5"/><text x="818.6666666666667" y="156" font-family="system-ui,-apple-system,'PingFang SC','Microsoft YaHei','Noto Sans CJK SC',sans-serif" font-size="13" fill="#2D3436" font-weight="700" text-anchor="middle" opacity="1.0">8 框架集成（feature 门控）</text><text x="818.6666666666667" y="176" font-family="system-ui,-apple-system,'PingFang SC','Microsoft YaHei','Noto Sans CJK SC',sans-serif" font-size="10.5" fill="#8A6A5B" font-weight="400" text-anchor="middle" opacity="1.0">axum · actix-web ·</text><text x="818.6666666666667" y="190" font-family="system-ui,-apple-system,'PingFang SC','Microsoft YaHei','Noto Sans CJK SC',sans-serif" font-size="10.5" fill="#8A6A5B" font-weight="400" text-anchor="middle" opacity="1.0">rocket · poem · salvo ·</text><text x="818.6666666666667" y="204" font-family="system-ui,-apple-system,'PingFang SC','Microsoft YaHei','Noto Sans CJK SC',sans-serif" font-size="10.5" fill="#8A6A5B" font-weight="400" text-anchor="middle" opacity="1.0">warp · bee-rust · e-cat</text><rect x="88" y="256" width="880" height="118" rx="10" fill="#E7F7F5" stroke="#4ECDC4" stroke-width="1.5"/><text x="108" y="282" font-family="system-ui,-apple-system,'PingFang SC','Microsoft YaHei','Noto Sans CJK SC',sans-serif" font-size="15" fill="#2D3436" font-weight="700" text-anchor="start" opacity="1.0">业务层</text><rect x="108.0" y="292" width="418.0" height="66" rx="8" fill="#FFFDF8" stroke="#E4EBF0" stroke-width="1.5"/><text x="317.0" y="316" font-family="system-ui,-apple-system,'PingFang SC','Microsoft YaHei','Noto Sans CJK SC',sans-serif" font-size="13" fill="#2D3436" font-weight="700" text-anchor="middle" opacity="1.0">CaptchaManager</text><text x="317.0" y="336" font-family="system-ui,-apple-system,'PingFang SC','Microsoft YaHei','Noto Sans CJK SC',sans-serif" font-size="10.5" fill="#8A6A5B" font-weight="400" text-anchor="middle" opacity="1.0">点击 / 旋转 / 滑块 / 随机 + 限流 + 轨迹校验</text><rect x="538.0" y="292" width="418.0" height="66" rx="8" fill="#FFFDF8" stroke="#E4EBF0" stroke-width="1.5"/><text x="747.0" y="316" font-family="system-ui,-apple-system,'PingFang SC','Microsoft YaHei','Noto Sans CJK SC',sans-serif" font-size="13" fill="#2D3436" font-weight="700" text-anchor="middle" opacity="1.0">PosterBuilder</text><text x="747.0" y="336" font-family="system-ui,-apple-system,'PingFang SC','Microsoft YaHei','Noto Sans CJK SC',sans-serif" font-size="10.5" fill="#8A6A5B" font-weight="400" text-anchor="middle" opacity="1.0">14 种元素 + JSON 模板 {{变量}} + 往返导出</text><rect x="88" y="416" width="880" height="118" rx="10" fill="#E8F3F9" stroke="#45B7D1" stroke-width="1.5"/><text x="108" y="442" font-family="system-ui,-apple-system,'PingFang SC','Microsoft YaHei','Noto Sans CJK SC',sans-serif" font-size="15" fill="#2D3436" font-weight="700" text-anchor="start" opacity="1.0">核心层</text><rect x="108.0" y="452" width="203.0" height="66" rx="8" fill="#FFFDF8" stroke="#E4EBF0" stroke-width="1.5"/><text x="209.5" y="476" font-family="system-ui,-apple-system,'PingFang SC','Microsoft YaHei','Noto Sans CJK SC',sans-serif" font-size="13" fill="#2D3436" font-weight="700" text-anchor="middle" opacity="1.0">ImageDriver</text><text x="209.5" y="496" font-family="system-ui,-apple-system,'PingFang SC','Microsoft YaHei','Noto Sans CJK SC',sans-serif" font-size="10.5" fill="#8A6A5B" font-weight="400" text-anchor="middle" opacity="1.0">image crate</text><text x="209.5" y="510" font-family="system-ui,-apple-system,'PingFang SC','Microsoft YaHei','Noto Sans CJK SC',sans-serif" font-size="10.5" fill="#8A6A5B" font-weight="400" text-anchor="middle" opacity="1.0">单驱动：画布 / TTF 文字 /</text><text x="209.5" y="524" font-family="system-ui,-apple-system,'PingFang SC','Microsoft YaHei','Noto Sans CJK SC',sans-serif" font-size="10.5" fill="#8A6A5B" font-weight="400" text-anchor="middle" opacity="1.0">图元</text><rect x="323.0" y="452" width="203.0" height="66" rx="8" fill="#FFFDF8" stroke="#E4EBF0" stroke-width="1.5"/><text x="424.5" y="476" font-family="system-ui,-apple-system,'PingFang SC','Microsoft YaHei','Noto Sans CJK SC',sans-serif" font-size="13" fill="#2D3436" font-weight="700" text-anchor="middle" opacity="1.0">Storage</text><text x="424.5" y="496" font-family="system-ui,-apple-system,'PingFang SC','Microsoft YaHei','Noto Sans CJK SC',sans-serif" font-size="10.5" fill="#8A6A5B" font-weight="400" text-anchor="middle" opacity="1.0">Memory / File /</text><text x="424.5" y="510" font-family="system-ui,-apple-system,'PingFang SC','Microsoft YaHei','Noto Sans CJK SC',sans-serif" font-size="10.5" fill="#8A6A5B" font-weight="400" text-anchor="middle" opacity="1.0">Redis（feature）</text><rect x="538.0" y="452" width="203.0" height="66" rx="8" fill="#FFFDF8" stroke="#E4EBF0" stroke-width="1.5"/><text x="639.5" y="476" font-family="system-ui,-apple-system,'PingFang SC','Microsoft YaHei','Noto Sans CJK SC',sans-serif" font-size="13" fill="#2D3436" font-weight="700" text-anchor="middle" opacity="1.0">qrcode 封装</text><text x="639.5" y="496" font-family="system-ui,-apple-system,'PingFang SC','Microsoft YaHei','Noto Sans CJK SC',sans-serif" font-size="10.5" fill="#8A6A5B" font-weight="400" text-anchor="middle" opacity="1.0">模块矩阵 → 精确像素</text><rect x="753.0" y="452" width="203.0" height="66" rx="8" fill="#FFFDF8" stroke="#E4EBF0" stroke-width="1.5"/><text x="854.5" y="476" font-family="system-ui,-apple-system,'PingFang SC','Microsoft YaHei','Noto Sans CJK SC',sans-serif" font-size="13" fill="#2D3436" font-weight="700" text-anchor="middle" opacity="1.0">PosterConfig</text><text x="854.5" y="496" font-family="system-ui,-apple-system,'PingFang SC','Microsoft YaHei','Noto Sans CJK SC',sans-serif" font-size="10.5" fill="#8A6A5B" font-weight="400" text-anchor="middle" opacity="1.0">键名对齐 PHP</text><text x="854.5" y="510" font-family="system-ui,-apple-system,'PingFang SC','Microsoft YaHei','Noto Sans CJK SC',sans-serif" font-size="10.5" fill="#8A6A5B" font-weight="400" text-anchor="middle" opacity="1.0">config/poster.php</text><rect x="88" y="576" width="880" height="118" rx="10" fill="#FFF8E1" stroke="#E8B93C" stroke-width="1.5"/><text x="108" y="602" font-family="system-ui,-apple-system,'PingFang SC','Microsoft YaHei','Noto Sans CJK SC',sans-serif" font-size="15" fill="#2D3436" font-weight="700" text-anchor="start" opacity="1.0">基础层</text><rect x="108.0" y="612" width="418.0" height="66" rx="8" fill="#FFFDF8" stroke="#E4EBF0" stroke-width="1.5"/><text x="317.0" y="636" font-family="system-ui,-apple-system,'PingFang SC','Microsoft YaHei','Noto Sans CJK SC',sans-serif" font-size="13" fill="#2D3436" font-weight="700" text-anchor="middle" opacity="1.0">Rust ≥ 1.85（edition 2024）</text><text x="317.0" y="656" font-family="system-ui,-apple-system,'PingFang SC','Microsoft YaHei','Noto Sans CJK SC',sans-serif" font-size="10.5" fill="#8A6A5B" font-weight="400" text-anchor="middle" opacity="1.0">全依赖纯 Rust，无 GD / ImageMagick 等系统库</text><rect x="538.0" y="612" width="418.0" height="66" rx="8" fill="#FFFDF8" stroke="#E4EBF0" stroke-width="1.5"/><text x="747.0" y="636" font-family="system-ui,-apple-system,'PingFang SC','Microsoft YaHei','Noto Sans CJK SC',sans-serif" font-size="13" fill="#2D3436" font-weight="700" text-anchor="middle" opacity="1.0">随包素材</text><text x="747.0" y="656" font-family="system-ui,-apple-system,'PingFang SC','Microsoft YaHei','Noto Sans CJK SC',sans-serif" font-size="10.5" fill="#8A6A5B" font-weight="400" text-anchor="middle" opacity="1.0">宠物 Posty · 6 张验证码背景 · 阿里巴巴普惠体</text><line x1="528" y1="218" x2="528" y2="248" stroke="#8A6A5B" stroke-width="1.8" marker-end="url(#ah)"/><line x1="528" y1="378" x2="528" y2="408" stroke="#8A6A5B" stroke-width="1.8" marker-end="url(#ah)"/><line x1="528" y1="538" x2="528" y2="568" stroke="#8A6A5B" stroke-width="1.8" marker-end="url(#ah)"/>
<line x1="24" y1="736" x2="1056" y2="736" stroke="#E4EBF0" stroke-width="1.5"/>
<text x="24" y="760" font-family="system-ui,-apple-system,'PingFang SC','Microsoft YaHei','Noto Sans CJK SC',sans-serif" font-size="12" fill="#8A6A5B" font-weight="400" text-anchor="start" opacity="1.0">Copyright © 2026 erik &lt;erik@erik.xyz&gt; — https://erik.xyz</text>
<g transform="translate(924,638) scale(0.36)" opacity="0.95">
  
  

  <!-- 地面投影 -->
  <ellipse cx="150" cy="234" rx="64" ry="10" fill="#E4EBF0"/>
  <!-- 脚 -->
  <ellipse cx="126" cy="210" rx="15" ry="10" fill="#FFFDF8" stroke="#2D3436" stroke-width="3"/>
  <ellipse cx="174" cy="210" rx="15" ry="10" fill="#FFFDF8" stroke="#2D3436" stroke-width="3"/>
  <!-- 触角 -->
  <path d="M150 60V40" stroke="#2D3436" stroke-width="3.5" stroke-linecap="round"/>
  <circle cx="150" cy="31" r="8" fill="#FF6B6B" stroke="#2D3436" stroke-width="3"/>

  <!-- 左手道具：二维码卡片 -->
  <g>
    <rect x="4" y="146" width="58" height="58" rx="12" fill="#FFFFFF" stroke="#2D3436" stroke-width="3"/>
    <g fill="#2D3436">
      <rect x="14" y="156" width="14" height="14"/><rect x="38" y="156" width="14" height="14"/>
      <rect x="14" y="180" width="14" height="14"/>
      <rect x="34" y="184" width="5" height="5"/><rect x="43" y="176" width="5" height="5"/>
      <rect x="34" y="194" width="5" height="5"/><rect x="44" y="190" width="10" height="6"/>
      <rect x="48" y="176" width="6" height="6"/>
    </g>
    <g fill="#FFFFFF">
      <rect x="18" y="160" width="6" height="6"/><rect x="42" y="160" width="6" height="6"/>
      <rect x="18" y="184" width="6" height="6"/>
    </g>
  </g>

  <!-- 右手道具：滑块拼图 -->
  <g transform="translate(10,0)">
    <path d="M226 124a8 8 0 0 1 8-8h6a9 9 0 0 0 18 0h4a8 8 0 0 1 8 8v6a9 9 0 0 1 0 18v4a8 8 0 0 1-8 8h-6a9 9 0 0 1-18 0h-4a8 8 0 0 1-8-8v-6a9 9 0 0 0 0-18z"
          fill="#4ECDC4" stroke="#2D3436" stroke-width="3" stroke-linejoin="round"/>
    <circle cx="248" cy="134" r="4" fill="#FFFFFF" opacity="0.75"/>
  </g>

  <!-- 手臂 -->
  <g fill="none" stroke-linecap="round">
    <path d="M94 154Q72 160 66 170" stroke="#2D3436" stroke-width="13"/>
    <path d="M94 154Q72 160 66 170" stroke="#FFFDF8" stroke-width="7"/>
    <path d="M206 154Q228 160 234 170" stroke="#2D3436" stroke-width="13"/>
    <path d="M206 154Q228 160 234 170" stroke="#FFFDF8" stroke-width="7"/>
  </g>

  <!-- 身体（海报本体） -->
  <rect x="84" y="52" width="132" height="152" rx="28" fill="#FFFDF8"/>
  <path d="M112 52H188A28 28 0 0 1 216 80V92H84V80A28 28 0 0 1 112 52Z" fill="#FF6B6B"/>
  <rect x="98" y="64" width="52" height="5" rx="2.5" fill="#FFFFFF" opacity="0.9"/>
  <rect x="98" y="75" width="32" height="5" rx="2.5" fill="#FFFFFF" opacity="0.6"/>
  <rect x="84" y="52" width="132" height="152" rx="28" fill="none" stroke="#2D3436" stroke-width="3.5"/>

  <!-- 表情 -->
  <g>
    <ellipse cx="110" cy="146" rx="11" ry="7" fill="#FFB4B4" opacity="0.75"/>
    <ellipse cx="190" cy="146" rx="11" ry="7" fill="#FFB4B4" opacity="0.75"/>
    <circle cx="126" cy="128" r="10" fill="#2D3436"/>
    <circle cx="174" cy="128" r="10" fill="#2D3436"/>
    <circle cx="130" cy="124" r="3.2" fill="#FFFFFF"/>
    <circle cx="178" cy="124" r="3.2" fill="#FFFFFF"/>
    <path d="M139 150Q150 161 161 150" fill="none" stroke="#2D3436" stroke-width="3.2" stroke-linecap="round"/>
  </g>

  <!-- 海报排版占位线 -->
  <rect x="114" y="172" width="72" height="8" rx="4" fill="#FFE3E3"/>
  <rect x="114" y="186" width="48" height="8" rx="4" fill="#E4EBF0"/>

  <!-- 点缀 -->
  <g fill="#FFD166">
    <path d="M0-9 2.6-2.6 9 0 2.6 2.6 0 9-2.6 2.6-9 0-2.6-2.6Z" transform="translate(262,84) scale(0.85)"/>
    <path d="M0-9 2.6-2.6 9 0 2.6 2.6 0 9-2.6 2.6-9 0-2.6-2.6Z" transform="translate(34,120) scale(0.7)"/>
    <path d="M0-9 2.6-2.6 9 0 2.6 2.6 0 9-2.6 2.6-9 0-2.6-2.6Z" transform="translate(238,40) scale(0.5)"/>
  </g>
</g>
</svg>
